<svg xmlns="http://www.w3.org/2000/svg" width="960" height="540" viewBox="0 0 960 540" role="img" aria-labelledby="title desc">
  <title id="title">ProofOfWork.Me mail app base value model in USD</title>
  <desc id="desc">Linear chart showing base current density mail app value projections in USD over 24 months.</desc>
  <rect width="960" height="540" fill="#f7f4ec"/>
  <text x="92" y="42" fill="#111" font-family="Inter, Arial, sans-serif" font-size="25" font-weight="700">Mail App Value: Base Model</text>
  <text x="92" y="69" fill="#57534e" font-family="Inter, Arial, sans-serif" font-size="14">USD millions. Current edge density, 4 messages/pair/year, 680.13 sats/delivery, 5x flow.</text>
  <g stroke="#d6d0c4" stroke-width="1">
    <line x1="92" y1="454" x2="912" y2="454"/>
    <line x1="92" y1="378.4" x2="912" y2="378.4"/>
    <line x1="92" y1="302.8" x2="912" y2="302.8"/>
    <line x1="92" y1="227.2" x2="912" y2="227.2"/>
    <line x1="92" y1="151.6" x2="912" y2="151.6"/>
    <line x1="92" y1="76" x2="912" y2="76"/>
  </g>
  <line x1="92" y1="454" x2="912" y2="454" stroke="#262626" stroke-width="1.5"/>
  <line x1="92" y1="76" x2="92" y2="454" stroke="#262626" stroke-width="1.5"/>
  <g fill="#57534e" font-family="Inter, Arial, sans-serif" font-size="13">
    <text x="58" y="458">$0</text>
    <text x="33" y="383">$10M</text>
    <text x="33" y="308">$20M</text>
    <text x="33" y="232">$30M</text>
    <text x="33" y="156">$40M</text>
    <text x="33" y="81">$50M</text>
  </g>
  <path d="M92.0,454.0 L297.0,447.7 L502.0,430.0 L707.0,400.7 L912.0,360.0" fill="none" stroke="#0f766e" stroke-width="5" stroke-linecap="round" stroke-linejoin="round"/>
  <path d="M92.0,454.0 L297.0,431.5 L502.0,366.3 L707.0,257.7 L912.0,106.8" fill="none" stroke="#be123c" stroke-width="5" stroke-linecap="round" stroke-linejoin="round"/>
  <g stroke="#f7f4ec" stroke-width="3">
    <g fill="#0f766e"><circle cx="92" cy="454" r="6"/><circle cx="297" cy="447.7" r="6"/><circle cx="502" cy="430" r="6"/><circle cx="707" cy="400.7" r="6"/><circle cx="912" cy="360" r="6"/></g>
    <g fill="#be123c"><circle cx="92" cy="454" r="6"/><circle cx="297" cy="431.5" r="6"/><circle cx="502" cy="366.3" r="6"/><circle cx="707" cy="257.7" r="6"/><circle cx="912" cy="106.8" r="6"/></g>
  </g>
  <g fill="#57534e" font-family="Inter, Arial, sans-serif" font-size="13">
    <text x="81" y="491">Now</text><text x="285" y="491">6m</text><text x="487" y="491">12m</text><text x="692" y="491">18m</text><text x="897" y="491">24m</text>
  </g>
  <g font-family="Inter, Arial, sans-serif" font-size="13" font-weight="700">
    <text x="658" y="112" fill="#be123c">Launch average: $45.93M</text>
    <text x="676" y="356" fill="#0f766e">Recent pace: $12.44M</text>
  </g>
  <g font-family="Inter, Arial, sans-serif" font-size="12">
    <rect x="92" y="96" width="14" height="4" fill="#0f766e"/><text x="114" y="101" fill="#57534e">Recent pace</text>
    <rect x="92" y="118" width="14" height="4" fill="#be123c"/><text x="114" y="123" fill="#57534e">Launch average pace</text>
  </g>
  <text x="92" y="520" fill="#57534e" font-family="Inter, Arial, sans-serif" font-size="12">Projection math only. BTC/USD fixed at $80,891.51.</text>
</svg>
