<svg xmlns="http://www.w3.org/2000/svg" width="960" height="540" viewBox="0 0 960 540" role="img" aria-labelledby="title desc">
  <title id="title">ProofOfWork.Me files app value model in USD</title>
  <desc id="desc">Linear chart showing Files/Desktop value projections in USD over 24 months.</desc>
  <rect width="960" height="540" fill="#f7f4ec"/>
  <text x="92" y="42" fill="#111" font-family="Inter, Arial, sans-serif" font-size="25" font-weight="700">Files App Value: Bitcoin Drive</text>
  <text x="92" y="69" fill="#57534e" font-family="Inter, Arial, sans-serif" font-size="14">USD millions. Drive light and agent workspace scenarios. 5x annual file-write flow.</text>
  <g stroke="#d6d0c4" stroke-width="1">
    <line x1="92" y1="454" x2="912" y2="454"/>
    <line x1="92" y1="354.5" x2="912" y2="354.5"/>
    <line x1="92" y1="255.1" x2="912" y2="255.1"/>
    <line x1="92" y1="155.6" x2="912" y2="155.6"/>
    <line x1="92" y1="76" x2="912" y2="76"/>
  </g>
  <line x1="92" y1="454" x2="912" y2="454" stroke="#262626" stroke-width="1.5"/>
  <line x1="92" y1="76" x2="92" y2="454" stroke="#262626" stroke-width="1.5"/>
  <g fill="#57534e" font-family="Inter, Arial, sans-serif" font-size="13">
    <text x="58" y="458">$0</text>
    <text x="39" y="359">$1M</text>
    <text x="39" y="260">$2M</text>
    <text x="39" y="160">$3M</text>
    <text x="39" y="81">$3.8M</text>
  </g>
  <path d="M92.0,454.0 L297.0,448.0 L502.0,442.5 L707.0,436.6 L912.0,430.8" fill="none" stroke="#0f766e" stroke-width="4" stroke-linecap="round" stroke-linejoin="round"/>
  <path d="M92.0,454.0 L297.0,442.7 L502.0,431.6 L707.0,420.5 L912.0,409.5" fill="none" stroke="#1d4ed8" stroke-width="4" stroke-linecap="round" stroke-linejoin="round"/>
  <path d="M92.0,454.0 L297.0,406.2 L502.0,361.6 L707.0,315.2 L912.0,268.9" fill="none" stroke="#c2410c" stroke-width="5" stroke-linecap="round" stroke-linejoin="round"/>
  <path d="M92.0,454.0 L297.0,358.5 L502.0,277.2 L707.0,187.3 L912.0,98.4" fill="none" stroke="#be123c" stroke-width="5" stroke-linecap="round" stroke-linejoin="round"/>
  <g stroke="#f7f4ec" stroke-width="3">
    <g fill="#0f766e"><circle cx="92" cy="454" r="5"/><circle cx="297" cy="448" r="5"/><circle cx="502" cy="442.5" r="5"/><circle cx="707" cy="436.6" r="5"/><circle cx="912" cy="430.8" r="5"/></g>
    <g fill="#1d4ed8"><circle cx="92" cy="454" r="5"/><circle cx="297" cy="442.7" r="5"/><circle cx="502" cy="431.6" r="5"/><circle cx="707" cy="420.5" r="5"/><circle cx="912" cy="409.5" r="5"/></g>
    <g fill="#c2410c"><circle cx="92" cy="454" r="6"/><circle cx="297" cy="406.2" r="6"/><circle cx="502" cy="361.6" r="6"/><circle cx="707" cy="315.2" r="6"/><circle cx="912" cy="268.9" r="6"/></g>
    <g fill="#be123c"><circle cx="92" cy="454" r="6"/><circle cx="297" cy="358.5" r="6"/><circle cx="502" cy="277.2" r="6"/><circle cx="707" cy="187.3" r="6"/><circle cx="912" cy="98.4" r="6"/></g>
  </g>
  <g fill="#57534e" font-family="Inter, Arial, sans-serif" font-size="13">
    <text x="81" y="491">Now</text><text x="285" y="491">6m</text><text x="487" y="491">12m</text><text x="692" y="491">18m</text><text x="897" y="491">24m</text>
  </g>
  <g font-family="Inter, Arial, sans-serif" font-size="13" font-weight="700">
    <text x="642" y="104" fill="#be123c">Agent workspace, launch avg: $3.58M</text>
    <text x="642" y="264" fill="#c2410c">Agent workspace, recent: $1.86M</text>
    <text x="642" y="405" fill="#1d4ed8">Drive light, launch avg: $446.93K</text>
    <text x="642" y="429" fill="#0f766e">Drive light, recent: $232.58K</text>
  </g>
  <text x="92" y="520" fill="#57534e" font-family="Inter, Arial, sans-serif" font-size="12">Projection math only. BTC/USD fixed at $80,891.51.</text>
</svg>
