<svg xmlns="http://www.w3.org/2000/svg" width="960" height="540" viewBox="0 0 960 540" role="img" aria-labelledby="title desc">
  <title id="title">PowID long-term modeled value in USD</title>
  <desc id="desc">Linear line chart showing modeled ProofOfWork ID network value in USD over 24 months.</desc>
  <rect width="960" height="540" fill="#f7f4ec"/>
  <text x="92" y="42" fill="#111111" font-family="Inter, Arial, sans-serif" font-size="25" font-weight="700">PowID Long-Term Value: USD</text>
  <text x="92" y="69" fill="#57534e" font-family="Inter, Arial, sans-serif" font-size="14">Linear scale. Y-axis is USD millions. BTC/USD fixed at $80,879.34 for this model.</text>

  <g stroke="#d6d0c4" stroke-width="1">
    <line x1="92" y1="454" x2="912" y2="454"/>
    <line x1="92" y1="364" x2="912" y2="364"/>
    <line x1="92" y1="274" x2="912" y2="274"/>
    <line x1="92" y1="184" x2="912" y2="184"/>
    <line x1="92" y1="94" x2="912" y2="94"/>
  </g>
  <line x1="92" y1="454" x2="912" y2="454" stroke="#262626" stroke-width="1.5"/>
  <line x1="92" y1="76" x2="92" y2="454" stroke="#262626" stroke-width="1.5"/>

  <g fill="#57534e" font-family="Inter, Arial, sans-serif" font-size="13">
    <text x="63" y="458">$0</text>
    <text x="34" y="369">$50M</text>
    <text x="26" y="279">$100M</text>
    <text x="26" y="189">$150M</text>
    <text x="26" y="99">$200M</text>
  </g>

  <path d="M92.0,454.0 L297.0,451.6 L502.0,444.8 L707.0,433.6 L912.0,418.1" fill="none" stroke="#0f766e" stroke-width="4" stroke-linecap="round" stroke-linejoin="round"/>
  <path d="M92.0,454.0 L297.0,447.5 L502.0,429.2 L707.0,398.9 L912.0,356.9" fill="none" stroke="#1d4ed8" stroke-width="4" stroke-linecap="round" stroke-linejoin="round"/>
  <path d="M92.0,454.0 L297.0,445.4 L502.0,420.5 L707.0,379.0 L912.0,321.3" fill="none" stroke="#c2410c" stroke-width="4" stroke-linecap="round" stroke-linejoin="round"/>
  <path d="M92.0,454.0 L297.0,430.8 L502.0,363.4 L707.0,251.2 L912.0,95.4" fill="none" stroke="#be123c" stroke-width="5" stroke-linecap="round" stroke-linejoin="round"/>

  <g stroke="#f7f4ec" stroke-width="3">
    <g fill="#0f766e">
      <circle cx="92" cy="454.0" r="5"/><circle cx="297" cy="451.6" r="5"/><circle cx="502" cy="444.8" r="5"/><circle cx="707" cy="433.6" r="5"/><circle cx="912" cy="418.1" r="5"/>
    </g>
    <g fill="#1d4ed8">
      <circle cx="92" cy="454.0" r="5"/><circle cx="297" cy="447.5" r="5"/><circle cx="502" cy="429.2" r="5"/><circle cx="707" cy="398.9" r="5"/><circle cx="912" cy="356.9" r="5"/>
    </g>
    <g fill="#c2410c">
      <circle cx="92" cy="454.0" r="5"/><circle cx="297" cy="445.4" r="5"/><circle cx="502" cy="420.5" r="5"/><circle cx="707" cy="379.0" r="5"/><circle cx="912" cy="321.3" r="5"/>
    </g>
    <g fill="#be123c">
      <circle cx="92" cy="454.0" r="6"/><circle cx="297" cy="430.8" r="6"/><circle cx="502" cy="363.4" r="6"/><circle cx="707" cy="251.2" r="6"/><circle cx="912" cy="95.4" r="6"/>
    </g>
  </g>

  <g fill="#57534e" font-family="Inter, Arial, sans-serif" font-size="13">
    <text x="81" y="491">Now</text>
    <text x="285" y="491">6m</text>
    <text x="487" y="491">12m</text>
    <text x="692" y="491">18m</text>
    <text x="897" y="491">24m</text>
  </g>

  <g font-family="Inter, Arial, sans-serif" font-size="13" font-weight="700">
    <text x="624" y="123" fill="#be123c">Launch avg, ID-weighted: $199.20M</text>
    <text x="704" y="310" fill="#c2410c">Launch avg, unique: $73.71M</text>
    <text x="704" y="349" fill="#1d4ed8">Recent, ID-weighted: $53.95M</text>
    <text x="704" y="411" fill="#0f766e">Recent, unique: $19.96M</text>
  </g>

  <g font-family="Inter, Arial, sans-serif" font-size="12">
    <rect x="92" y="96" width="14" height="4" fill="#0f766e"/><text x="114" y="101" fill="#57534e">Recent pace, unique balance density</text>
    <rect x="92" y="118" width="14" height="4" fill="#1d4ed8"/><text x="114" y="123" fill="#57534e">Recent pace, ID-weighted density</text>
    <rect x="92" y="140" width="14" height="4" fill="#c2410c"/><text x="114" y="145" fill="#57534e">Launch average, unique balance density</text>
    <rect x="92" y="162" width="14" height="4" fill="#be123c"/><text x="114" y="167" fill="#57534e">Launch average, ID-weighted density</text>
  </g>

  <text x="92" y="520" fill="#57534e" font-family="Inter, Arial, sans-serif" font-size="12">Current: 94 IDs. Projection math only. USD changes if BTC/USD changes.</text>
</svg>
