<svg xmlns="http://www.w3.org/2000/svg" width="960" height="540" viewBox="0 0 960 540" role="img" aria-labelledby="title desc">
  <title id="title">PowID modeled network value on a linear scale</title>
  <desc id="desc">Line chart showing modeled network value using current unique receive-address balance density, from 2418 sats to 2374139 sats.</desc>
  <rect width="960" height="540" fill="#f7f4ec"/>
  <text x="88" y="44" fill="#111111" font-family="Inter, Arial, sans-serif" font-size="26" font-weight="700">Modeled PowID Value Density</text>
  <text x="88" y="72" fill="#57534e" font-family="Inter, Arial, sans-serif" font-size="15">Linear scale. Current unique balance density: 268.69 sats per n^2 unit.</text>
  <line x1="88" y1="458" x2="916" y2="458" stroke="#262626" stroke-width="1.5"/>
  <line x1="88" y1="56" x2="88" y2="458" stroke="#262626" stroke-width="1.5"/>
  <g stroke="#d6d0c4" stroke-width="1">
    <line x1="88" y1="374.3" x2="916" y2="374.3"/>
    <line x1="88" y1="290.5" x2="916" y2="290.5"/>
    <line x1="88" y1="206.8" x2="916" y2="206.8"/>
    <line x1="88" y1="123.0" x2="916" y2="123.0"/>
  </g>
  <g fill="#57534e" font-family="Inter, Arial, sans-serif" font-size="13">
    <text x="55" y="462">0</text>
    <text x="20" y="379">500k</text>
    <text x="24" y="295">1.0M</text>
    <text x="24" y="212">1.5M</text>
    <text x="24" y="128">2.0M</text>
  </g>
  <path d="M88.0,457.6 L295.0,414.7 L502.0,237.5 L709.0,162.7 L916.0,60.3" fill="none" stroke="#1d4ed8" stroke-width="5" stroke-linecap="round" stroke-linejoin="round"/>
  <g fill="#1d4ed8" stroke="#f7f4ec" stroke-width="3">
    <circle cx="88" cy="457.6" r="7"/>
    <circle cx="295" cy="414.7" r="7"/>
    <circle cx="502" cy="237.5" r="7"/>
    <circle cx="709" cy="162.7" r="7"/>
    <circle cx="916" cy="60.3" r="7"/>
  </g>
  <g fill="#111111" font-family="Inter, Arial, sans-serif" font-size="14" font-weight="700">
    <text x="56" y="438">2,418</text>
    <text x="253" y="399">258,210</text>
    <text x="453" y="222">1,316,578</text>
    <text x="660" y="147">1,762,871</text>
    <text x="867" y="46">2,374,139</text>
  </g>
  <g fill="#57534e" font-family="Inter, Arial, sans-serif" font-size="13">
    <text x="71" y="496">May 7</text>
    <text x="278" y="496">May 8</text>
    <text x="485" y="496">May 9</text>
    <text x="688" y="496">May 10</text>
    <text x="895" y="496">May 11</text>
  </g>
  <text x="88" y="520" fill="#57534e" font-family="Inter, Arial, sans-serif" font-size="12">Model: n^2 multiplied by current unique receive-address sats density. Not historical balance data.</text>
</svg>
