<svg xmlns="http://www.w3.org/2000/svg" width="960" height="540" viewBox="0 0 960 540" role="img" aria-labelledby="title desc">
  <title id="title">PowID confirmed ID growth on a linear scale</title>
  <desc id="desc">Line chart showing confirmed ProofOfWork IDs from May 7 to May 11, 2026, growing from 3 to 94.</desc>
  <rect width="960" height="540" fill="#f7f4ec"/>
  <text x="88" y="44" fill="#111111" font-family="Inter, Arial, sans-serif" font-size="26" font-weight="700">Confirmed PowID Growth</text>
  <text x="88" y="72" fill="#57534e" font-family="Inter, Arial, sans-serif" font-size="15">Linear scale. Confirmed, routable PowIDs only.</text>
  <line x1="88" y1="458" x2="916" y2="458" stroke="#262626" stroke-width="1.5"/>
  <line x1="88" y1="56" x2="88" y2="458" stroke="#262626" stroke-width="1.5"/>
  <g stroke="#d6d0c4" stroke-width="1">
    <line x1="88" y1="377.6" x2="916" y2="377.6"/>
    <line x1="88" y1="297.2" x2="916" y2="297.2"/>
    <line x1="88" y1="216.8" x2="916" y2="216.8"/>
    <line x1="88" y1="136.4" x2="916" y2="136.4"/>
    <line x1="88" y1="56" x2="916" y2="56"/>
  </g>
  <g fill="#57534e" font-family="Inter, Arial, sans-serif" font-size="13">
    <text x="55" y="462">0</text>
    <text x="45" y="382">20</text>
    <text x="45" y="302">40</text>
    <text x="45" y="222">60</text>
    <text x="45" y="141">80</text>
    <text x="38" y="61">100</text>
  </g>
  <path d="M88.0,445.9 L295.0,333.4 L502.0,176.6 L709.0,132.4 L916.0,80.1" fill="none" stroke="#0f766e" stroke-width="5" stroke-linecap="round" stroke-linejoin="round"/>
  <g fill="#0f766e" stroke="#f7f4ec" stroke-width="3">
    <circle cx="88" cy="445.9" r="7"/>
    <circle cx="295" cy="333.4" r="7"/>
    <circle cx="502" cy="176.6" r="7"/>
    <circle cx="709" cy="132.4" r="7"/>
    <circle cx="916" cy="80.1" r="7"/>
  </g>
  <g fill="#111111" font-family="Inter, Arial, sans-serif" font-size="14" font-weight="700">
    <text x="72" y="430">3</text>
    <text x="278" y="318">31</text>
    <text x="485" y="161">70</text>
    <text x="692" y="117">81</text>
    <text x="899" y="65">94</text>
  </g>
  <g fill="#57534e" font-family="Inter, Arial, sans-serif" font-size="13">
    <text x="71" y="496">May 7</text>
    <text x="278" y="496">May 8</text>
    <text x="485" y="496">May 9</text>
    <text x="688" y="496">May 10</text>
    <text x="895" y="496">May 11</text>
  </g>
  <text x="88" y="520" fill="#57534e" font-family="Inter, Arial, sans-serif" font-size="12">Source: ProofOfWork registry API indexed 2026-05-11T17:50:33Z.</text>
</svg>
