<svg xmlns="http://www.w3.org/2000/svg" width="960" height="540" viewBox="0 0 960 540" role="img" aria-labelledby="title desc">
  <title id="title">ProofOfWork.Me mail app paid inbox value model in USD</title>
  <desc id="desc">Linear chart showing paid inbox monthly mail app value projections in USD over 24 months.</desc>
  <rect width="960" height="540" fill="#f7f4ec"/>
  <text x="92" y="42" fill="#111" font-family="Inter, Arial, sans-serif" font-size="25" font-weight="700">Mail App Value: Paid Inbox Model</text>
  <text x="92" y="69" fill="#57534e" font-family="Inter, Arial, sans-serif" font-size="14">USD millions. 5% edge density, 12 messages/pair/year, 1,000 sats/delivery, 5x flow.</text>
  <g stroke="#d6d0c4" stroke-width="1">
    <line x1="92" y1="454" x2="912" y2="454"/>
    <line x1="92" y1="365.1" x2="912" y2="365.1"/>
    <line x1="92" y1="276.1" x2="912" y2="276.1"/>
    <line x1="92" y1="187.2" x2="912" y2="187.2"/>
    <line x1="92" y1="98.2" x2="912" y2="98.2"/>
  </g>
  <line x1="92" y1="454" x2="912" y2="454" stroke="#262626" stroke-width="1.5"/>
  <line x1="92" y1="76" x2="92" y2="454" stroke="#262626" stroke-width="1.5"/>
  <g fill="#57534e" font-family="Inter, Arial, sans-serif" font-size="13">
    <text x="58" y="458">$0</text>
    <text x="25" y="370">$200M</text>
    <text x="25" y="281">$400M</text>
    <text x="25" y="192">$600M</text>
    <text x="25" y="103">$800M</text>
  </g>
  <path d="M92.0,454.0 L297.0,447.4 L502.0,428.7 L707.0,397.8 L912.0,354.9" fill="none" stroke="#0f766e" stroke-width="5" stroke-linecap="round" stroke-linejoin="round"/>
  <path d="M92.0,454.0 L297.0,430.3 L502.0,361.6 L707.0,247.0 L912.0,88.0" fill="none" stroke="#be123c" stroke-width="5" stroke-linecap="round" stroke-linejoin="round"/>
  <g stroke="#f7f4ec" stroke-width="3">
    <g fill="#0f766e"><circle cx="92" cy="454" r="6"/><circle cx="297" cy="447.4" r="6"/><circle cx="502" cy="428.7" r="6"/><circle cx="707" cy="397.8" r="6"/><circle cx="912" cy="354.9" r="6"/></g>
    <g fill="#be123c"><circle cx="92" cy="454" r="6"/><circle cx="297" cy="430.3" r="6"/><circle cx="502" cy="361.6" r="6"/><circle cx="707" cy="247" r="6"/><circle cx="912" cy="88" r="6"/></g>
  </g>
  <g fill="#57534e" font-family="Inter, Arial, sans-serif" font-size="13">
    <text x="81" y="491">Now</text><text x="285" y="491">6m</text><text x="487" y="491">12m</text><text x="692" y="491">18m</text><text x="897" y="491">24m</text>
  </g>
  <g font-family="Inter, Arial, sans-serif" font-size="13" font-weight="700">
    <text x="650" y="94" fill="#be123c">Launch average: $823.07M</text>
    <text x="676" y="351" fill="#0f766e">Recent pace: $222.88M</text>
  </g>
  <g font-family="Inter, Arial, sans-serif" font-size="12">
    <rect x="92" y="96" width="14" height="4" fill="#0f766e"/><text x="114" y="101" fill="#57534e">Recent pace</text>
    <rect x="92" y="118" width="14" height="4" fill="#be123c"/><text x="114" y="123" fill="#57534e">Launch average pace</text>
  </g>
  <text x="92" y="520" fill="#57534e" font-family="Inter, Arial, sans-serif" font-size="12">Projection math only. BTC/USD fixed at $80,891.51.</text>
</svg>
