<svg xmlns="http://www.w3.org/2000/svg" width="960" height="540" viewBox="0 0 960 540" role="img" aria-labelledby="title desc">
  <title id="title">PowID long-term modeled value in sats</title>
  <desc id="desc">Linear line chart showing modeled ProofOfWork ID network value in billions of sats over 24 months.</desc>
  <rect width="960" height="540" fill="#f7f4ec"/>
  <text x="92" y="42" fill="#111111" font-family="Inter, Arial, sans-serif" font-size="25" font-weight="700">PowID Long-Term Value: Sats</text>
  <text x="92" y="69" fill="#57534e" font-family="Inter, Arial, sans-serif" font-size="14">Linear scale. Y-axis is billions of sats. Model: projected IDs^2 * current sats density.</text>

  <g stroke="#d6d0c4" stroke-width="1">
    <line x1="92" y1="454" x2="912" y2="454"/>
    <line x1="92" y1="378.4" x2="912" y2="378.4"/>
    <line x1="92" y1="302.8" x2="912" y2="302.8"/>
    <line x1="92" y1="227.2" x2="912" y2="227.2"/>
    <line x1="92" y1="151.6" x2="912" y2="151.6"/>
    <line x1="92" y1="76" x2="912" y2="76"/>
  </g>
  <line x1="92" y1="454" x2="912" y2="454" stroke="#262626" stroke-width="1.5"/>
  <line x1="92" y1="76" x2="92" y2="454" stroke="#262626" stroke-width="1.5"/>

  <g fill="#57534e" font-family="Inter, Arial, sans-serif" font-size="13">
    <text x="63" y="458">0</text>
    <text x="42" y="383">50B</text>
    <text x="34" y="308">100B</text>
    <text x="34" y="232">150B</text>
    <text x="34" y="156">200B</text>
    <text x="34" y="81">250B</text>
  </g>

  <path d="M92.0,454.0 L297.0,451.5 L502.0,444.5 L707.0,432.8 L912.0,416.7" fill="none" stroke="#0f766e" stroke-width="4" stroke-linecap="round" stroke-linejoin="round"/>
  <path d="M92.0,454.0 L297.0,447.3 L502.0,428.3 L707.0,396.8 L912.0,353.2" fill="none" stroke="#1d4ed8" stroke-width="4" stroke-linecap="round" stroke-linejoin="round"/>
  <path d="M92.0,454.0 L297.0,445.1 L502.0,419.2 L707.0,376.1 L912.0,316.2" fill="none" stroke="#c2410c" stroke-width="4" stroke-linecap="round" stroke-linejoin="round"/>
  <path d="M92.0,454.0 L297.0,429.9 L502.0,359.9 L707.0,243.4 L912.0,81.6" fill="none" stroke="#be123c" stroke-width="5" stroke-linecap="round" stroke-linejoin="round"/>

  <g stroke="#f7f4ec" stroke-width="3">
    <g fill="#0f766e">
      <circle cx="92" cy="454.0" r="5"/><circle cx="297" cy="451.5" r="5"/><circle cx="502" cy="444.5" r="5"/><circle cx="707" cy="432.8" r="5"/><circle cx="912" cy="416.7" r="5"/>
    </g>
    <g fill="#1d4ed8">
      <circle cx="92" cy="454.0" r="5"/><circle cx="297" cy="447.3" r="5"/><circle cx="502" cy="428.3" r="5"/><circle cx="707" cy="396.8" r="5"/><circle cx="912" cy="353.2" r="5"/>
    </g>
    <g fill="#c2410c">
      <circle cx="92" cy="454.0" r="5"/><circle cx="297" cy="445.1" r="5"/><circle cx="502" cy="419.2" r="5"/><circle cx="707" cy="376.1" r="5"/><circle cx="912" cy="316.2" r="5"/>
    </g>
    <g fill="#be123c">
      <circle cx="92" cy="454.0" r="6"/><circle cx="297" cy="429.9" r="6"/><circle cx="502" cy="359.9" r="6"/><circle cx="707" cy="243.4" r="6"/><circle cx="912" cy="81.6" r="6"/>
    </g>
  </g>

  <g fill="#57534e" font-family="Inter, Arial, sans-serif" font-size="13">
    <text x="81" y="491">Now</text>
    <text x="285" y="491">6m</text>
    <text x="487" y="491">12m</text>
    <text x="692" y="491">18m</text>
    <text x="897" y="491">24m</text>
  </g>

  <g font-family="Inter, Arial, sans-serif" font-size="13" font-weight="700">
    <text x="746" y="108" fill="#be123c">Launch avg, ID-weighted: 246.30B sats</text>
    <text x="704" y="304" fill="#c2410c">Launch avg, unique: 91.14B</text>
    <text x="702" y="345" fill="#1d4ed8">Recent, ID-weighted: 66.70B</text>
    <text x="702" y="409" fill="#0f766e">Recent, unique: 24.68B</text>
  </g>

  <g font-family="Inter, Arial, sans-serif" font-size="12">
    <rect x="92" y="96" width="14" height="4" fill="#0f766e"/><text x="114" y="101" fill="#57534e">Recent pace, unique balance density</text>
    <rect x="92" y="118" width="14" height="4" fill="#1d4ed8"/><text x="114" y="123" fill="#57534e">Recent pace, ID-weighted density</text>
    <rect x="92" y="140" width="14" height="4" fill="#c2410c"/><text x="114" y="145" fill="#57534e">Launch average, unique balance density</text>
    <rect x="92" y="162" width="14" height="4" fill="#be123c"/><text x="114" y="167" fill="#57534e">Launch average, ID-weighted density</text>
  </g>

  <text x="92" y="520" fill="#57534e" font-family="Inter, Arial, sans-serif" font-size="12">Current: 94 IDs. Densities: 268.69 and 726.14 sats per n^2 unit. Projection math only.</text>
</svg>
